<mxfile host="Electron" modified="2023-10-08T04:51:57.980Z" agent="Mozilla/5.0 (X11; Linux x86_64) AppleWebKit/537.36 (KHTML, like Gecko) draw.io/21.7.5 Chrome/114.0.5735.289 Electron/25.8.1 Safari/537.36" etag="-vIZjWoMFnPOdQIFBc59" version="21.7.5" type="device">
  <diagram name="Page-1" id="VV2Tj73Z8iUzlBGZ93V7">
    <mxGraphModel dx="769" dy="680" grid="1" gridSize="10" guides="1" tooltips="1" connect="1" arrows="1" fold="1" page="1" pageScale="1" pageWidth="850" pageHeight="1100" math="0" shadow="0">
      <root>
        <mxCell id="0" />
        <mxCell id="1" parent="0" />
        <mxCell id="16gL87DovGFG_4gAKoqP-1" value="&lt;font style=&quot;font-size: 24px;&quot;&gt;2&lt;/font&gt;" style="ellipse;shape=doubleEllipse;whiteSpace=wrap;html=1;aspect=fixed;" parent="1" vertex="1">
          <mxGeometry x="670" y="70" width="80" height="80" as="geometry" />
        </mxCell>
        <mxCell id="16gL87DovGFG_4gAKoqP-4" style="edgeStyle=orthogonalEdgeStyle;rounded=0;orthogonalLoop=1;jettySize=auto;html=1;" parent="1" source="16gL87DovGFG_4gAKoqP-2" edge="1">
          <mxGeometry relative="1" as="geometry">
            <mxPoint x="380" y="110" as="targetPoint" />
          </mxGeometry>
        </mxCell>
        <mxCell id="16gL87DovGFG_4gAKoqP-23" style="edgeStyle=orthogonalEdgeStyle;rounded=0;orthogonalLoop=1;jettySize=auto;html=1;entryX=0;entryY=0.5;entryDx=0;entryDy=0;" parent="1" source="16gL87DovGFG_4gAKoqP-2" target="16gL87DovGFG_4gAKoqP-18" edge="1">
          <mxGeometry relative="1" as="geometry">
            <Array as="points">
              <mxPoint x="170" y="230" />
              <mxPoint x="360" y="230" />
              <mxPoint x="360" y="280" />
            </Array>
          </mxGeometry>
        </mxCell>
        <mxCell id="16gL87DovGFG_4gAKoqP-33" style="edgeStyle=orthogonalEdgeStyle;rounded=0;orthogonalLoop=1;jettySize=auto;html=1;entryX=0.5;entryY=0;entryDx=0;entryDy=0;" parent="1" source="16gL87DovGFG_4gAKoqP-2" target="16gL87DovGFG_4gAKoqP-32" edge="1">
          <mxGeometry relative="1" as="geometry" />
        </mxCell>
        <mxCell id="16gL87DovGFG_4gAKoqP-2" value="&lt;font style=&quot;font-size: 24px;&quot;&gt;0&lt;/font&gt;" style="ellipse;whiteSpace=wrap;html=1;aspect=fixed;" parent="1" vertex="1">
          <mxGeometry x="130" y="80" width="80" height="80" as="geometry" />
        </mxCell>
        <mxCell id="16gL87DovGFG_4gAKoqP-15" style="edgeStyle=orthogonalEdgeStyle;rounded=0;orthogonalLoop=1;jettySize=auto;html=1;" parent="1" source="16gL87DovGFG_4gAKoqP-3" target="16gL87DovGFG_4gAKoqP-1" edge="1">
          <mxGeometry relative="1" as="geometry" />
        </mxCell>
        <mxCell id="16gL87DovGFG_4gAKoqP-3" value="&lt;font style=&quot;font-size: 24px;&quot;&gt;1&lt;/font&gt;" style="ellipse;whiteSpace=wrap;html=1;aspect=fixed;" parent="1" vertex="1">
          <mxGeometry x="390" y="70" width="80" height="80" as="geometry" />
        </mxCell>
        <mxCell id="16gL87DovGFG_4gAKoqP-9" value="" style="curved=1;endArrow=classic;html=1;rounded=0;entryX=0.512;entryY=-0.049;entryDx=0;entryDy=0;entryPerimeter=0;exitX=0;exitY=0.5;exitDx=0;exitDy=0;" parent="1" source="16gL87DovGFG_4gAKoqP-2" target="16gL87DovGFG_4gAKoqP-2" edge="1">
          <mxGeometry width="50" height="50" relative="1" as="geometry">
            <mxPoint x="100" y="110" as="sourcePoint" />
            <mxPoint x="150" y="60" as="targetPoint" />
            <Array as="points">
              <mxPoint x="70" y="20" />
            </Array>
          </mxGeometry>
        </mxCell>
        <mxCell id="16gL87DovGFG_4gAKoqP-10" value="empty space, \t, \n" style="text;html=1;align=center;verticalAlign=middle;resizable=0;points=[];autosize=1;strokeColor=none;fillColor=none;" parent="1" vertex="1">
          <mxGeometry x="60" y="28" width="120" height="30" as="geometry" />
        </mxCell>
        <mxCell id="16gL87DovGFG_4gAKoqP-11" value="&lt;font style=&quot;font-size: 18px;&quot;&gt;a-z&lt;/font&gt;" style="text;html=1;align=center;verticalAlign=middle;resizable=0;points=[];autosize=1;strokeColor=none;fillColor=none;" parent="1" vertex="1">
          <mxGeometry x="245" y="70" width="50" height="40" as="geometry" />
        </mxCell>
        <mxCell id="16gL87DovGFG_4gAKoqP-13" value="&lt;font style=&quot;font-size: 18px;&quot;&gt;aA-zZ, 0-9&lt;font&gt;&lt;br&gt;&lt;/font&gt;&lt;/font&gt;" style="text;html=1;align=center;verticalAlign=middle;resizable=0;points=[];autosize=1;strokeColor=none;fillColor=none;" parent="1" vertex="1">
          <mxGeometry x="290" width="110" height="40" as="geometry" />
        </mxCell>
        <mxCell id="16gL87DovGFG_4gAKoqP-16" value="&lt;div&gt;&lt;font style=&quot;font-size: 18px;&quot;&gt;Other&lt;/font&gt;&lt;/div&gt;" style="text;html=1;align=center;verticalAlign=middle;resizable=0;points=[];autosize=1;strokeColor=none;fillColor=none;" parent="1" vertex="1">
          <mxGeometry x="525" y="63" width="70" height="40" as="geometry" />
        </mxCell>
        <mxCell id="16gL87DovGFG_4gAKoqP-17" value="&lt;div&gt;TK_ID&lt;/div&gt;&lt;div&gt;BACK&lt;br&gt;&lt;/div&gt;" style="text;html=1;align=center;verticalAlign=middle;resizable=0;points=[];autosize=1;strokeColor=none;fillColor=none;" parent="1" vertex="1">
          <mxGeometry x="750" y="90" width="60" height="40" as="geometry" />
        </mxCell>
        <mxCell id="16gL87DovGFG_4gAKoqP-28" style="edgeStyle=orthogonalEdgeStyle;rounded=0;orthogonalLoop=1;jettySize=auto;html=1;entryX=0;entryY=0.5;entryDx=0;entryDy=0;" parent="1" source="16gL87DovGFG_4gAKoqP-18" target="16gL87DovGFG_4gAKoqP-19" edge="1">
          <mxGeometry relative="1" as="geometry" />
        </mxCell>
        <mxCell id="16gL87DovGFG_4gAKoqP-18" value="&lt;font style=&quot;font-size: 24px;&quot;&gt;3&lt;/font&gt;" style="ellipse;whiteSpace=wrap;html=1;aspect=fixed;" parent="1" vertex="1">
          <mxGeometry x="380" y="240" width="80" height="80" as="geometry" />
        </mxCell>
        <mxCell id="16gL87DovGFG_4gAKoqP-19" value="&lt;font style=&quot;font-size: 24px;&quot;&gt;4&lt;/font&gt;" style="ellipse;shape=doubleEllipse;whiteSpace=wrap;html=1;aspect=fixed;" parent="1" vertex="1">
          <mxGeometry x="650" y="250" width="80" height="80" as="geometry" />
        </mxCell>
        <mxCell id="16gL87DovGFG_4gAKoqP-24" value="&lt;div&gt;&lt;font style=&quot;font-size: 18px;&quot;&gt;0-9&lt;/font&gt;&lt;/div&gt;" style="text;html=1;align=center;verticalAlign=middle;resizable=0;points=[];autosize=1;strokeColor=none;fillColor=none;" parent="1" vertex="1">
          <mxGeometry x="245" y="190" width="50" height="40" as="geometry" />
        </mxCell>
        <mxCell id="16gL87DovGFG_4gAKoqP-25" value="" style="curved=1;endArrow=classic;html=1;rounded=0;exitX=0;exitY=0.5;exitDx=0;exitDy=0;entryX=0.5;entryY=0;entryDx=0;entryDy=0;" parent="1" target="16gL87DovGFG_4gAKoqP-18" edge="1">
          <mxGeometry width="50" height="50" relative="1" as="geometry">
            <mxPoint x="394" y="250" as="sourcePoint" />
            <mxPoint x="435" y="230" as="targetPoint" />
            <Array as="points">
              <mxPoint x="370" y="240" />
              <mxPoint x="380" y="180" />
              <mxPoint x="420" y="190" />
            </Array>
          </mxGeometry>
        </mxCell>
        <mxCell id="16gL87DovGFG_4gAKoqP-26" value="" style="curved=1;endArrow=classic;html=1;rounded=0;exitX=0;exitY=0.5;exitDx=0;exitDy=0;entryX=0.5;entryY=0;entryDx=0;entryDy=0;" parent="1" edge="1">
          <mxGeometry width="50" height="50" relative="1" as="geometry">
            <mxPoint x="399" y="80" as="sourcePoint" />
            <mxPoint x="425" y="70" as="targetPoint" />
            <Array as="points">
              <mxPoint x="375" y="70" />
              <mxPoint x="385" y="10" />
              <mxPoint x="425" y="20" />
            </Array>
          </mxGeometry>
        </mxCell>
        <mxCell id="16gL87DovGFG_4gAKoqP-27" value="&lt;div&gt;&lt;font style=&quot;font-size: 18px;&quot;&gt;0-9&lt;/font&gt;&lt;/div&gt;" style="text;html=1;align=center;verticalAlign=middle;resizable=0;points=[];autosize=1;strokeColor=none;fillColor=none;" parent="1" vertex="1">
          <mxGeometry x="370" y="160" width="50" height="40" as="geometry" />
        </mxCell>
        <mxCell id="16gL87DovGFG_4gAKoqP-29" value="&lt;div&gt;&lt;font style=&quot;font-size: 18px;&quot;&gt;Other&lt;/font&gt;&lt;/div&gt;" style="text;html=1;align=center;verticalAlign=middle;resizable=0;points=[];autosize=1;strokeColor=none;fillColor=none;" parent="1" vertex="1">
          <mxGeometry x="510" y="240" width="70" height="40" as="geometry" />
        </mxCell>
        <mxCell id="16gL87DovGFG_4gAKoqP-30" value="&lt;div&gt;&amp;nbsp;&amp;nbsp;&amp;nbsp;&amp;nbsp;&amp;nbsp;&amp;nbsp;&amp;nbsp;&amp;nbsp;&amp;nbsp;&amp;nbsp;&amp;nbsp;&amp;nbsp;&lt;/div&gt;&lt;div&gt;&amp;nbsp;&amp;nbsp;&amp;nbsp;&amp;nbsp;&amp;nbsp;&amp;nbsp;&amp;nbsp;&amp;nbsp;&amp;nbsp;&amp;nbsp;&amp;nbsp;&amp;nbsp; TK_NUMBER&lt;/div&gt;&lt;div&gt;BACK&lt;br&gt;&lt;/div&gt;" style="text;html=1;align=center;verticalAlign=middle;resizable=0;points=[];autosize=1;strokeColor=none;fillColor=none;" parent="1" vertex="1">
          <mxGeometry x="680" y="250" width="140" height="60" as="geometry" />
        </mxCell>
        <mxCell id="16gL87DovGFG_4gAKoqP-37" style="edgeStyle=orthogonalEdgeStyle;rounded=0;orthogonalLoop=1;jettySize=auto;html=1;" parent="1" source="16gL87DovGFG_4gAKoqP-32" edge="1">
          <mxGeometry relative="1" as="geometry">
            <mxPoint x="350" y="380" as="targetPoint" />
          </mxGeometry>
        </mxCell>
        <mxCell id="16gL87DovGFG_4gAKoqP-38" style="edgeStyle=orthogonalEdgeStyle;rounded=0;orthogonalLoop=1;jettySize=auto;html=1;entryX=0;entryY=0.5;entryDx=0;entryDy=0;" parent="1" source="16gL87DovGFG_4gAKoqP-32" edge="1">
          <mxGeometry relative="1" as="geometry">
            <mxPoint x="250" y="470" as="targetPoint" />
            <Array as="points">
              <mxPoint x="170" y="470" />
            </Array>
          </mxGeometry>
        </mxCell>
        <mxCell id="16gL87DovGFG_4gAKoqP-32" value="&lt;font style=&quot;font-size: 24px;&quot;&gt;5&lt;/font&gt;" style="ellipse;whiteSpace=wrap;html=1;aspect=fixed;" parent="1" vertex="1">
          <mxGeometry x="130" y="300" width="80" height="80" as="geometry" />
        </mxCell>
        <mxCell id="16gL87DovGFG_4gAKoqP-34" value="=,&amp;lt;,&amp;gt;,!" style="text;html=1;align=center;verticalAlign=middle;resizable=0;points=[];autosize=1;strokeColor=none;fillColor=none;" parent="1" vertex="1">
          <mxGeometry x="165" y="245" width="60" height="30" as="geometry" />
        </mxCell>
        <mxCell id="16gL87DovGFG_4gAKoqP-39" value="&lt;div&gt;&lt;font style=&quot;font-size: 18px;&quot;&gt;Other&lt;/font&gt;&lt;/div&gt;" style="text;html=1;align=center;verticalAlign=middle;resizable=0;points=[];autosize=1;strokeColor=none;fillColor=none;" parent="1" vertex="1">
          <mxGeometry x="235" y="300" width="70" height="40" as="geometry" />
        </mxCell>
        <mxCell id="16gL87DovGFG_4gAKoqP-42" value="=,&amp;lt;,&amp;gt;,!" style="text;html=1;align=center;verticalAlign=middle;resizable=0;points=[];autosize=1;strokeColor=none;fillColor=none;" parent="1" vertex="1">
          <mxGeometry x="165" y="440" width="60" height="30" as="geometry" />
        </mxCell>
        <mxCell id="16gL87DovGFG_4gAKoqP-43" value="&lt;font style=&quot;font-size: 24px;&quot;&gt;6&lt;/font&gt;" style="ellipse;shape=doubleEllipse;whiteSpace=wrap;html=1;aspect=fixed;" parent="1" vertex="1">
          <mxGeometry x="355" y="340" width="80" height="80" as="geometry" />
        </mxCell>
        <mxCell id="16gL87DovGFG_4gAKoqP-44" value="&lt;font style=&quot;font-size: 24px;&quot;&gt;7&lt;/font&gt;" style="ellipse;shape=doubleEllipse;whiteSpace=wrap;html=1;aspect=fixed;" parent="1" vertex="1">
          <mxGeometry x="250" y="430" width="80" height="80" as="geometry" />
        </mxCell>
        <mxCell id="16gL87DovGFG_4gAKoqP-45" value="&lt;div&gt;&amp;nbsp;&amp;nbsp;&amp;nbsp;&amp;nbsp;&amp;nbsp;&amp;nbsp;&amp;nbsp;&amp;nbsp;&amp;nbsp;&amp;nbsp;&amp;nbsp;&amp;nbsp;&lt;/div&gt;&lt;div&gt;&amp;nbsp;&amp;nbsp;&amp;nbsp;&amp;nbsp;&amp;nbsp;&amp;nbsp;&amp;nbsp;&amp;nbsp;&amp;nbsp;&amp;nbsp; TK_ASSING&lt;/div&gt;&lt;div&gt;BACK&lt;br&gt;&lt;/div&gt;" style="text;html=1;align=center;verticalAlign=middle;resizable=0;points=[];autosize=1;strokeColor=none;fillColor=none;" parent="1" vertex="1">
          <mxGeometry x="395" y="350" width="130" height="60" as="geometry" />
        </mxCell>
        <mxCell id="16gL87DovGFG_4gAKoqP-47" value="&lt;div&gt;&amp;nbsp;&amp;nbsp;&amp;nbsp;&amp;nbsp;&amp;nbsp;&amp;nbsp;&amp;nbsp;&amp;nbsp;&amp;nbsp;&amp;nbsp;&amp;nbsp;&amp;nbsp;&amp;nbsp;&amp;nbsp;&amp;nbsp; TK_OPERATOR&lt;/div&gt;&lt;div&gt;BACK&lt;br&gt;&lt;/div&gt;" style="text;html=1;align=center;verticalAlign=middle;resizable=0;points=[];autosize=1;strokeColor=none;fillColor=none;" parent="1" vertex="1">
          <mxGeometry x="275" y="450" width="160" height="40" as="geometry" />
        </mxCell>
      </root>
    </mxGraphModel>
  </diagram>
</mxfile>
